# xmcd CD database file
#
# Track frame offsets:
#	150
#	14282
#	27282
#	38302
#	56742
#	76882
#	91675
#	105285
#	119997
#	133177
#	147145
#	163492
#	177477
#	190477
#	201512
#	219082
#	239277
#	253212
#	266012
#	280500
#	293725
#	307727
#
# Disc length: 4319 seconds
#
# Revision: 2
# Processed by: cddbd v1.5.2PL0 Copyright (c) Steve Scherf et al.
# Submitted via: CDex 1.70beta3
#
DISCID=3b10dd16
DTITLE=菊池俊輔 - 仮面ライダーV3
DYEAR=1992
DGENRE=Anime
TTITLE0=宮内洋／ザ・スウィンガーズ/戦え!仮面ライダーV3
TTITLE1=水木一郎／コロムビアゆりかご会/少年仮面仮面ライダー隊の歌
TTITLE2=子門真人／コロムビアゆりかご会/走れハリケーン
TTITLE3=子門真人/仮面ライダー讃歌
TTITLE4=水木一郎/V3の一人歌
TTITLE5=水木一郎／コロムビアゆりかご会/V3のマーチ
TTITLE6=日本合唱協会/デストロン讃歌
TTITLE7=子門真人/V3アクション
TTITLE8=井上裕子/V3の子守歌
TTITLE9=水木一郎/不死身の男
TTITLE10=コロムビアゆりかご会/ぼくらの仮面ライダーV3
TTITLE11=戦え!仮面ライダーV3
TTITLE12=少年仮面仮面ライダー隊の歌
TTITLE13=走れハリケーン
TTITLE14=仮面ライダー讃歌
TTITLE15=V3の一人歌
TTITLE16=V3のマーチ
TTITLE17=デストロン讃歌
TTITLE18=V3アクション
TTITLE19=V3の子守歌
TTITLE20=不死身の男
TTITLE21=ぼくらの仮面ライダーV3
EXTD=YEAR: 1992
EXTT0=
EXTT1=
EXTT2=
EXTT3=
EXTT4=
EXTT5=
EXTT6=
EXTT7=
EXTT8=
EXTT9=
EXTT10=
EXTT11=
EXTT12=
EXTT13=
EXTT14=
EXTT15=
EXTT16=
EXTT17=
EXTT18=
EXTT19=
EXTT20=
EXTT21=
PLAYORDER=
